<svg width="16" height="16" viewBox="0 0 16 16" fill="none" xmlns="http://www.w3.org/2000/svg">
<path d="M8.9261 9.95851C9.62091 9.95851 10.104 9.26739 9.86521 8.61488L8.4094 4.63624C8.31351 4.40019 8.21392 4.11987 8.11065 3.7953C8.02038 3.51159 7.59052 3.52208 7.50207 3.80636C7.3988 4.13094 7.29922 4.41494 7.20332 4.65837L5.75766 8.61535C5.5193 9.26777 6.00233 9.95851 6.69694 9.95851H8.9261ZM15.0763 14.6344C15.334 15.2904 14.8503 16 14.1455 16H13.3112C13.053 16 12.8428 15.9373 12.6805 15.8119C12.5182 15.6791 12.3965 15.5168 12.3154 15.325L11.3606 12.7171C11.2163 12.3229 10.8412 12.0609 10.4215 12.0609H5.1912C4.77149 12.0609 4.39644 12.3229 4.25215 12.7171L3.29737 15.325C3.23836 15.4947 3.12402 15.6496 2.95436 15.7898C2.78469 15.9299 2.57446 16 2.32365 16H1.46813C0.763068 16 0.279413 15.2899 0.537587 14.6338L6.04658 0.633831C6.19706 0.251419 6.56617 0 6.97713 0H8.64623C9.0574 0 9.42666 0.251682 9.57699 0.634387L15.0763 14.6344Z" fill="white"/>
</svg>
