<svg width="28" height="31" viewBox="0 0 28 31" fill="none" xmlns="http://www.w3.org/2000/svg">
<path d="M23.3333 14.0001H4.66667C3.19391 14.0001 2 15.194 2 16.6667V26.0001C2 27.4728 3.19391 28.6667 4.66667 28.6667H23.3333C24.8061 28.6667 26 27.4728 26 26.0001V16.6667C26 15.194 24.8061 14.0001 23.3333 14.0001Z" stroke="white" stroke-width="3"/>
<path d="M7.33203 14.0001V8.66673C7.33203 6.89862 8.03441 5.20293 9.28465 3.95268C10.5349 2.70244 12.2306 2.00006 13.9987 2.00006C15.7668 2.00006 17.4625 2.70244 18.7127 3.95268C19.963 5.20293 20.6654 6.89862 20.6654 8.66673V14.0001" stroke="white" stroke-width="3"/>
<circle cx="14" cy="21.0001" r="2" fill="white"/>
</svg>
