<svg width="18" height="20" viewBox="0 0 18 20" fill="none" xmlns="http://www.w3.org/2000/svg">
<path d="M8.78922 -1.52588e-05C7.81984 -1.52588e-05 7.03125 0.788577 7.03125 1.75795V8.82888C7.03125 9.79825 7.81984 10.5868 8.78922 10.5868C9.75859 10.5868 10.5472 9.79825 10.5472 8.82888V1.75795C10.5472 0.788577 9.75859 -1.52588e-05 8.78922 -1.52588e-05Z" fill="white"/>
<path d="M14.6724 4.64654C13.9326 3.97924 12.8559 4.05514 12.2099 4.71971C11.5602 5.38803 11.51 6.51994 12.3331 7.27033C13.6393 8.45763 14.2996 10.257 13.9868 12.0722C13.5623 14.5357 11.4197 16.4772 8.78954 16.4829C6.09537 16.4889 4.03139 14.4997 3.60564 12.162C3.27373 10.3359 3.88607 8.50755 5.24517 7.27146C6.06587 6.52432 6.02302 5.3874 5.3715 4.71834C4.72435 4.05377 3.64123 3.98198 2.89494 4.6574C0.828187 6.52939 -0.25064 9.29681 0.0495161 12.1019C0.526781 16.562 4.29256 19.9997 8.81025 19.9997C13.2761 19.9997 16.9327 16.5538 17.4965 12.3925C17.8896 9.49294 16.8338 6.59732 14.6724 4.64654Z" fill="white"/>
</svg>
